<svg xmlns="http://www.w3.org/2000/svg" viewBox="0 0 1680 752.98"><defs><style>.cls-1,.cls-2{fill:#e7f2fb;}.cls-1{opacity:0.8;}.cls-1,.cls-3{isolation:isolate;}.cls-3{fill:#2196f3;opacity:0.16;}</style></defs><g id="Layer_2" data-name="Layer 2"><g id="Layer_2-2" data-name="Layer 2"><path class="cls-1" d="M1680,0C1222.77,53.79,1057.4,175.49,364.44,83.75,231.87,66.2,108.51,73,0,96.56v644.1c500.81,65.14,744.68-155.73,1680-22.42Z"/><path class="cls-2" d="M1680,74.88c-151.34,57.55-220.74,225.52-638.61,324.4C621.17,498.7,283,369.63,0,358V589c612.64-65.4,773.25,201.14,1164.84,139.12C1402,690.54,1523.49,497.41,1680,410.38Z"/><path class="cls-3" d="M1680,177.64c-485.45,172-782.94,149.63-1010,116.11C520.72,271.7,404.57,245.5,280.06,265.22,172.8,282.21,77.57,312.09,0,346.61V653.13c218.38-60.33,610.11-372.45,1038.92,14.79C1296.51,900.54,1498.57,531,1680,409.6Z"/></g></g></svg>